# xmcd
#
# Track frame offsets:
#	150
#	19158
#	25556
#	39881
#	52451
#	64423
#	83668
#	95082
#	105939
#	121101
#	134995
#	156162
#	169596
#	184799
#	218908
#	233206
#	255000
#	271304
#
# Disc length: 3966 seconds
# Revision: 0
# Processed by: cddbd v1.5.2PL0 Copyright (c) Steve Scherf et al.
# Submitted via: dBpowerAMP V12.0
#
DISCID=f00f7c12
DTITLE=The Glory Gospel Singers - A Gospel Christmas Night
DYEAR=1900
DGENRE=Gospel
TTITLE0=O Holy Night
TTITLE1=Fum Fum Fum
TTITLE2=What Child is this
TTITLE3=God rest ye, meery Gentlemen
TTITLE4=Away in a Manger
TTITLE5=Silent Night
TTITLE6=Sweet little Jesus boy
TTITLE7=Angels we have heard on high
TTITLE8=Sharon's Medley of X-Mas joy
TTITLE9=Have yourself a merry little Christmas
TTITLE10=Noel
TTITLE11=Joy to the World
TTITLE12=Kum Ba Yah
TTITLE13=Glory to be God on high
TTITLE14='Ah been buked
TTITLE15=Go tell it on the Mountain
TTITLE16=There is a balm in Gilead
TTITLE17=Hark the Herald Angels Sing
EXTD=
EXTT0=
EXTT1=
EXTT2=
EXTT3=
EXTT4=
EXTT5=
EXTT6=
EXTT7=
EXTT8=
EXTT9=
EXTT10=
EXTT11=
EXTT12=
EXTT13=
EXTT14=
EXTT15=
EXTT16=
EXTT17=
PLAYORDER=
